<svg xmlns="http://www.w3.org/2000/svg" version="1.1" xmlns:xlink="http://www.w3.org/1999/xlink" xmlns:svgjs="http://svgjs.dev/svgjs" width="1000" height="232" viewBox="0 0 1000 232"><g transform="matrix(1,0,0,1,-0.6060606060606233,-0.3989694780117077)"><svg viewBox="0 0 396 92" data-background-color="#ffffff" preserveAspectRatio="xMidYMid meet" height="232" width="1000" xmlns="http://www.w3.org/2000/svg" xmlns:xlink="http://www.w3.org/1999/xlink"><g id="tight-bounds" transform="matrix(1,0,0,1,0.2400000000000091,0.1582120343839506)"><svg viewBox="0 0 395.52 91.6835759312321" height="91.6835759312321" width="395.52"><g><svg viewBox="0 0 395.52 91.6835759312321" height="91.6835759312321" width="395.52"><g><svg viewBox="0 0 395.52 91.6835759312321" height="91.6835759312321" width="395.52"><g id="textblocktransform"><svg viewBox="0 0 395.52 91.6835759312321" height="91.6835759312321" width="395.52" id="textblock"><g><svg viewBox="0 0 395.52 91.6835759312321" height="91.6835759312321" width="395.52"><g transform="matrix(1,0,0,1,0,0)"><svg width="395.52" viewBox="4 -39.95000076293945 174.49000549316406 40.45000076293945" height="91.6835759312321" data-palette-color="#7e3010"><path d="M27.6-0.6L18.15-16.45 14.3-16.45Q13.45-16.45 12.98-17.13 12.5-17.8 12.5-18.95L12.5-18.95Q12.5-21.5 14.6-21.5L14.6-21.5 20.45-21.5Q22.3-21.5 23.05-22.55 23.8-23.6 23.8-24.85L23.8-24.85 23.8-31.3Q23.8-32.55 23.05-33.6 22.3-34.65 20.45-34.65L20.45-34.65 9.9-34.65 9.9-2.05Q9.9 0.35 6.95 0.35L6.95 0.35Q4 0.35 4-2.05L4-2.05 4-36.7Q4-38.5 4.93-39.1 5.85-39.7 7.15-39.7L7.15-39.7 21.7-39.7Q23-39.7 24.4-39.15 25.8-38.6 27.1-37.75L27.1-37.75 27.05-37.75Q28.35-36.8 29.05-35.27 29.75-33.75 29.75-31.75L29.75-31.75 29.75-24.45Q29.75-20.4 27.05-18.4L27.05-18.4Q26.5-18 25.88-17.65 25.25-17.3 24.6-16.95L24.6-16.95 32.6-3.75Q32.75-3.5 32.9-3.1 33.05-2.7 33.05-2.45L33.05-2.45Q33.05-1.25 31.35-0.15L31.35-0.15 31.35-0.2Q30.2 0.5 29.4 0.5L29.4 0.5Q28.25 0.5 27.55-0.65L27.55-0.65 27.6-0.6ZM45.7-39.7L56.6-39.7Q57.9-39.7 59.3-39.15 60.7-38.6 62-37.75L62-37.75 61.95-37.75Q63.25-36.8 63.95-35.27 64.65-33.75 64.65-31.75L64.65-31.75 64.65-8Q64.65-3.95 61.95-1.95L61.95-1.95Q60.65-1 59.27-0.48 57.9 0.05 56.6 0.05L56.6 0.05 45.7 0.05Q44.4 0.05 43.02-0.48 41.65-1 40.35-1.95L40.35-1.95Q39.05-2.95 38.35-4.42 37.65-5.9 37.65-8L37.65-8 37.65-31.75Q37.65-33.75 38.35-35.27 39.05-36.8 40.35-37.75L40.35-37.75 40.3-37.75Q41.6-38.6 43-39.15 44.4-39.7 45.7-39.7L45.7-39.7ZM46.95-5L55.35-5Q57.2-5 57.95-6.05 58.7-7.1 58.7-8.4L58.7-8.4 58.7-31.3Q58.7-32.55 57.95-33.6 57.2-34.65 55.35-34.65L55.35-34.65 46.95-34.65Q45.1-34.65 44.35-33.6 43.6-32.55 43.6-31.3L43.6-31.3 43.6-8.4Q43.6-7.1 44.35-6.05 45.1-5 46.95-5L46.95-5ZM96.35-1.2L85.35-34.8 74.4-1.2 74.4-1.25Q74.1-0.5 73.57-0.03 73.05 0.45 72.3 0.45L72.3 0.45Q71.9 0.45 71.52 0.38 71.15 0.3 70.75 0.2L70.75 0.2 70.8 0.2Q67.95-0.7 68.7-3L68.7-3 80.1-37.65Q80.35-38.45 80.97-39 81.6-39.55 82.45-39.65L82.45-39.65Q83.3-39.8 84.1-39.88 84.9-39.95 85.35-39.95L85.35-39.95Q85.8-39.95 86.6-39.88 87.4-39.8 88.25-39.7L88.25-39.7Q88.95-39.6 89.62-38.95 90.3-38.3 90.65-37.65L90.65-37.65Q93.45-29.05 96.32-20.33 99.2-11.6 102-3L102-3Q102.7-0.7 99.9 0.2L99.9 0.2Q99.5 0.3 99.17 0.38 98.85 0.45 98.45 0.45L98.45 0.45Q97.75 0.45 97.17-0.03 96.6-0.5 96.35-1.25L96.35-1.25 96.35-1.2ZM89.1-12L89.1-12Q89.1-10.4 87.97-9.28 86.85-8.15 85.25-8.15L85.25-8.15Q83.65-8.15 82.55-9.28 81.45-10.4 81.45-12L81.45-12Q81.45-13.6 82.55-14.73 83.65-15.85 85.25-15.85L85.25-15.85Q86.85-15.85 87.97-14.73 89.1-13.6 89.1-12ZM137.14-39.95L137.14-39.95Q138.74-39.95 140.64-39.2L140.64-39.2Q142.39-38.5 142.39-36.55L142.39-36.55 142.39-2.1Q142.39 0.3 139.44 0.3L139.44 0.3Q136.49 0.3 136.49-2.1L136.49-2.1 136.49-27.8 135.04-27.95 133.04-21.45 127.04-1.45Q126.49 0.3 124.34 0.25L124.34 0.25Q123.39 0.2 122.69-0.25 121.99-0.7 121.74-1.55L121.74-1.55 118.14-13.2Q117.04-16.65 115.94-20.23 114.84-23.8 113.54-28.15L113.54-28.15 112.09-27.95 112.09-2.1Q112.09 0.3 109.14 0.3L109.14 0.3Q106.19 0.3 106.19-2.1L106.19-2.1 106.19-36.55Q106.19-38.45 107.94-39.2L107.94-39.2Q109.79-39.95 111.49-39.9L111.49-39.9Q112.24-39.9 113.04-39.7 113.84-39.5 114.54-39.13 115.24-38.75 115.79-38.18 116.34-37.6 116.64-36.85L116.64-36.85 124.49-10.1Q125.34-13.05 126.29-16.5 127.24-19.95 128.24-23.5 129.24-27.05 130.22-30.53 131.19-34 132.04-37L132.04-37Q132.34-37.7 132.89-38.25 133.44-38.8 134.14-39.18 134.84-39.55 135.62-39.75 136.39-39.95 137.14-39.95ZM173.04-0.6L163.59-16.45 159.74-16.45Q158.89-16.45 158.41-17.13 157.94-17.8 157.94-18.95L157.94-18.95Q157.94-21.5 160.04-21.5L160.04-21.5 165.89-21.5Q167.74-21.5 168.49-22.55 169.24-23.6 169.24-24.85L169.24-24.85 169.24-31.3Q169.24-32.55 168.49-33.6 167.74-34.65 165.89-34.65L165.89-34.65 155.34-34.65 155.34-2.05Q155.34 0.35 152.39 0.35L152.39 0.35Q149.44 0.35 149.44-2.05L149.44-2.05 149.44-36.7Q149.44-38.5 150.37-39.1 151.29-39.7 152.59-39.7L152.59-39.7 167.14-39.7Q168.44-39.7 169.84-39.15 171.24-38.6 172.54-37.75L172.54-37.75 172.49-37.75Q173.79-36.8 174.49-35.27 175.19-33.75 175.19-31.75L175.19-31.75 175.19-24.45Q175.19-20.4 172.49-18.4L172.49-18.4Q171.94-18 171.31-17.65 170.69-17.3 170.04-16.95L170.04-16.95 178.04-3.75Q178.19-3.5 178.34-3.1 178.49-2.7 178.49-2.45L178.49-2.45Q178.49-1.25 176.79-0.15L176.79-0.15 176.79-0.2Q175.64 0.5 174.84 0.5L174.84 0.5Q173.69 0.5 172.99-0.65L172.99-0.65 173.04-0.6Z" opacity="1" transform="matrix(1,0,0,1,0,0)" fill="#7e3010" class="undefined-text-0" data-fill-palette-color="primary" id="text-0"></path></svg></g></svg></g></svg></g></svg></g></svg></g><defs></defs></svg><rect width="395.52" height="91.6835759312321" fill="none" stroke="none" visibility="hidden"></rect></g></svg></g></svg>